<?xml version="1.0" encoding="utf-8"?>
<!-- Generator: Adobe Illustrator 22.0.1, SVG Export Plug-In . SVG Version: 6.00 Build 0)  -->
<svg version="1.1" id="Layer_1" xmlns="http://www.w3.org/2000/svg" xmlns:xlink="http://www.w3.org/1999/xlink" x="0px" y="0px"
	 viewBox="0 0 140 42" width="140px" style="enable-background:new 0 0 140 42;" xml:space="preserve">
<style type="text/css">
	.st0{fill:#FFFFFF;}
	.st1{fill:#F5821E;}
</style>
<title>Group 11 Copy</title>
<g id="Page-1">
	<g id="Desktop-_x2F_-Home-1" transform="translate(-80.000000, -11.000000)">
		<g id="Group-11-Copy" transform="translate(80.000000, 11.000000)">
			<g id="Group-7" transform="translate(47.090909, 8.132727)">
				<g id="Clip-2">
				</g>
				<path id="Fill-1" class="st0" d="M1.8,22.9h2.6V6.4H1.8V22.9z M3.1,0.2c1,0,1.8,0.8,1.8,1.8S4.1,3.8,3.1,3.8S1.3,3,1.3,2
					S2.1,0.2,3.1,0.2L3.1,0.2z"/>
				<path class="st0" d="M22.7,0.2v8.2c-1.6-1.5-3.8-2.4-6-2.4C12,6,8,9.8,8,14.6s3.9,8.7,8.7,8.7c2.2,0,4.4-0.9,6-2.4v2h2.6V0.2
					H22.7z M16.7,20.7c-3.3,0-6-2.7-6-6s2.6-5.9,5.9-6h0.1c3.3,0,6,2.7,6,6S20,20.7,16.7,20.7z"/>
				<path id="Fill-4" class="st0" d="M38.1,6c-2.2,0-4.4,0.9-6,2.4v-2h-2.6v16.4h2.6v-8.2c0-3.3,2.7-6,6-6V6z"/>
				<path class="st0" d="M54.1,6.4v1.9c-1.6-1.5-3.8-2.4-6-2.4c-4.5,0.2-8.1,3.8-8.3,8.3c-0.2,4.8,3.5,8.8,8.3,9
					c2.2,0,4.4-0.9,6-2.4v2h2.7V6.4H54.1z M48.1,20.7c-3.3,0-6-2.7-6-6c0.1-3.3,2.7-6,6-6s6,2.7,6,6S51.4,20.7,48.1,20.7z"/>
				<path id="Fill-6" class="st0" d="M63.5,6.4h-2.7v16.4h2.6v-8.2c0-3.3,2.7-6,6-6s6,2.7,6,6v8.2h2.7v-8.2c0-3.3,2.7-6,6-6
					s6,2.7,6,6v8.2h2.6v-8.2c0-4.8-3.9-8.6-8.6-8.6c-3,0-5.7,1.5-7.3,4c-1.6-2.5-4.3-4-7.3-4c-2.2,0-4.4,0.8-6,2.4L63.5,6.4
					L63.5,6.4z"/>
			</g>
			<g id="Group-10" transform="translate(-0.000000, 0.496364)">
				<g id="Clip-9">
				</g>
				<path id="Fill-8" class="st1" d="M8.3,1.5C4,3.8,1.3,8.1,0.9,12.9l0,0v3.9c0.2,0.6,0.8,1.1,1.5,1.1l0,0c0.8,0,1.5-0.7,1.5-1.5
					l0,0v-2c0-4.3,2.2-8.2,6-10.3l0,0c3.7-2.2,8.3-2.2,11.9,0l0,0l1.8,1l0,0l0,0c0.7,0.4,1.6,0.2,2-0.5l0,0l0,0
					c0.4-0.7,0.2-1.6-0.5-2l0,0l-1.8-1c-2.3-1.4-4.9-2.1-7.5-2.1l0,0C13.2-0.6,10.6,0.1,8.3,1.5 M27.9,6.1c-0.4,0.7-0.1,1.6,0.6,2
					l0,0l1.7,1c3.7,2.1,6,6,6,10.3l0,0c0.1,4.3-2.2,8.2-6,10.3l0,0l-8.6,5c-3.7,2.2-8.3,2.2-12,0l0,0c-3.7-2.1-6-6-5.9-10.3l0,0v-2
					c0-0.8-0.7-1.5-1.5-1.5l0,0c-0.7,0-1.3,0.5-1.4,1.1l0,0v3.8c0.4,4.8,3.1,9.1,7.4,11.4l0,0c4.6,2.7,10.3,2.7,14.9,0l0,0l8.7-5
					c4.7-2.6,7.6-7.5,7.5-12.9l0,0C39.4,14,36.5,9,31.8,6.4l0,0l-1.7-1L30,5.3l0,0c-0.3,0-0.5,0-0.8,0l0,0
					C28.7,5.3,28.2,5.6,27.9,6.1 M11.3,6.7c-2.8,1.6-4.5,4.5-4.5,7.7l0,0v10c-0.1,3.2,1.7,6.2,4.5,7.7l0,0c2.7,1.6,6.2,1.6,8.9,0
					l0,0l1.8-1c0.7-0.4,0.9-1.3,0.5-2l0,0c-0.4-0.7-1.3-1-2-0.6l0,0l0,0l0,0l-1.7,1c-1.9,1.1-4.1,1.1-6,0l0,0c-1.9-1-3-3-3-5.2l0,0
					v-10c0-2.1,1.1-4.1,3-5.2l0,0c1.8-1.1,4.1-1.1,6,0l0,0l8.6,5c1.9,1,3,3,3,5.2l0,0c0,2.1-1.1,4.1-3,5.2l0,0l-1.8,1
					c-0.7,0.4-0.9,1.4-0.4,2l0,0c0.4,0.6,1.2,0.9,1.9,0.5l0,0l1.7-1c2.8-1.6,4.5-4.5,4.5-7.7l0,0c0.1-3.2-1.7-6.2-4.5-7.7l0,0
					l-8.6-5c-1.4-0.8-2.9-1.2-4.5-1.2l0,0C14.2,5.5,12.7,5.9,11.3,6.7 M13.1,13c-0.3,0.4-0.4,0.9-0.4,1.4l0,0v2
					c0.1,0.8,0.8,1.4,1.6,1.3l0,0c0.7-0.1,1.3-0.6,1.3-1.3l0,0V15c0-0.1,0.1-0.2,0.2-0.3l0,0c0.1,0,0.2,0,0.4,0l0,0l3.8,2.2l3.8,2.2
					c0.1,0,0.2,0.2,0.2,0.3l0,0c0,0.1-0.1,0.3-0.2,0.3l0,0L20,21.9l-3.8,2.2c-0.1,0.1-0.3,0.1-0.4,0l0,0c-0.1,0-0.2-0.2-0.2-0.3l0,0
					v-1.4c-0.1-0.8-0.8-1.4-1.6-1.3l0,0c-0.7,0.1-1.3,0.6-1.3,1.3l0,0v2c0,1.1,0.6,2,1.5,2.5l0,0c0.9,0.5,2,0.5,3,0l0,0l8.6-5
					c0.9-0.5,1.5-1.5,1.5-2.5l0,0c0-1.1-0.6-2-1.5-2.5l0,0l-8.6-5c-0.5-0.3-1-0.4-1.5-0.4l0,0C14.7,11.5,13.7,12,13.1,13"/>
			</g>
		</g>
	</g>
</g>
</svg>
