<svg width="162" height="30" viewBox="0 0 162 30" fill="none" xmlns="http://www.w3.org/2000/svg">
<path d="M16.3593 1.05288V28.9605H9.18531V8.17342H0.733398V1.05288H16.3593ZM18.6001 8.17954H25.7741V1.05899H18.6001V8.17954ZM47.4804 28.9605V21.8461H35.2543V18.5701H44.6096V11.4495H35.2543V8.17342H47.4804V1.05288H28.0802V28.9605H47.4804ZM69.3948 28.9605V21.8461H58.0543V1.05288H50.8802V28.9605H69.3948ZM83.4516 8.14897C86.2273 8.14897 88.1411 9.85424 88.8544 11.8406L96.4862 11.8468C95.6774 5.61247 90.2274 0.600586 83.3446 0.600586C75.2077 0.600586 69.5434 6.62707 69.5434 15.0006C69.5434 23.3741 75.3979 29.4006 83.3446 29.4006C90.061 29.4006 95.446 25.006 96.5748 18.1789L88.8247 18.1727C88.1352 20.3608 86.0074 21.8522 83.4456 21.8522C79.6476 21.8522 77.0681 19.0285 77.0681 15.0006C77.0741 10.9727 79.5585 8.14897 83.4516 8.14897ZM98.6374 1.05288V28.9605H118.038V21.8461H105.811V18.5701H115.167V11.4495H105.811V8.17342H118.038V1.05288H98.6374ZM139.941 28.9605V21.8461H128.605V1.05288H121.431V28.9605H139.941ZM149.854 1.05288H142.681V28.9605H161.189V21.8461H149.854V1.05288Z" fill="#FF5C39"/>
</svg>
